# xmcd
#
# Track frame offsets:
#	150
#	16775
#	34962
#	51088
#	67123
#	89209
#	106609
#	129270
#	146043
#	161721
#	179980
#	194073
#	210992
#	234869
#	251735
#
# Disc length: 3604 seconds
#
# Revision: 1
# Processed by: cddbd v1.5.2PL0 Copyright (c) Steve Scherf et al.
# Submitted via: audiograbber 1.83.01
#
DISCID=dc0e120f
DTITLE=COMPILATION - SBI603
DYEAR=2012
DGENRE=COUNTRY
TTITLE0=JERROD NIEMANN - SHINING ON ME
TTITLE1=LOVE and THEFT - RUNAWAY
TTITLE2=ELI YOUNG BAND - CRAZY GIRL
TTITLE3=JASON ALDEAN - LAUGHED UNTIL WE CRIED
TTITLE4=ERIC CHURCH - SPRINGSTEEN
TTITLE5=LUKE BRYAN - DRUNK ON YOU
TTITLE6=BRANTLEY GILBERT - YOU DIDN'T KNOW HER LIKE I DO
TTITLE7=CARRIE UNDERWOOD - GOOD GIRL
TTITLE8=TIM MCGRAW - BETTER THEN I USED TO BE
TTITLE9=ZAC BROWN BAND - NO HURRY
TTITLE10=KIP MOORE - SOMETHING ABOUT A TRUCK
TTITLE11=TOBY KEITH - BEERS AGO
TTITLE12=SARA EVANS - A LITTLE BIT STRONGER
TTITLE13=LEE BRICE - A WOMAN LIKE YOU
TTITLE14=JOHNNY REID - KICKING STONES
EXTD=
EXTT0=
EXTT1=
EXTT2=
EXTT3=
EXTT4=
EXTT5=
EXTT6=
EXTT7=
EXTT8=
EXTT9=
EXTT10=
EXTT11=
EXTT12=
EXTT13=
EXTT14=
PLAYORDER=
